# Blender v2.82 (sub 7) OBJ File: 'bird meshes.blend'
# www.blender.org
mtllib lwing.mtl
o Cube_Cube.001
v -0.018856 0.000402 0.031744
v -0.018856 0.002878 0.031744
v -0.013900 -0.001238 0.008953
v -0.013900 0.001238 0.008953
v 0.000962 0.000402 0.029051
v 0.000962 0.002878 0.029051
v 0.006100 -0.001238 0.008953
v 0.006100 0.001238 0.008953
v -0.005221 -0.000663 0.062286
v -0.005221 0.000663 0.062286
v 0.005284 -0.000663 0.060204
v 0.005284 0.000663 0.060204
v -0.020650 0.001640 0.031545
v -0.014119 0.000000 0.005245
v 0.008927 0.000000 0.005245
v 0.002185 0.001640 0.028441
v -0.004602 -0.000000 0.064427
v 0.007502 -0.000000 0.062028
vt 0.500000 0.000000
vt 0.625000 0.000000
vt 0.625000 0.250000
vt 0.500000 0.250000
vt 0.625000 0.500000
vt 0.500000 0.500000
vt 0.625000 0.750000
vt 0.500000 0.750000
vt 0.375000 0.000000
vt 0.375000 0.000000
vt 0.500000 0.000000
vt 0.125000 0.500000
vt 0.375000 0.500000
vt 0.375000 0.750000
vt 0.125000 0.750000
vt 0.875000 0.500000
vt 0.875000 0.750000
vt 0.500000 0.750000
vt 0.625000 0.750000
vt 0.625000 1.000000
vt 0.500000 1.000000
vt 0.375000 0.750000
vt 0.125000 0.750000
vt 0.875000 0.750000
vt 0.375000 1.000000
vt 0.625000 0.000000
vt 0.375000 0.250000
vn -0.5921 0.7829 -0.1909
vn 0.0000 0.9485 -0.3167
vn 0.5967 0.7957 0.1035
vn -0.6617 -0.6955 0.2801
vn 0.0052 -0.9970 0.0775
vn -0.0052 0.9970 -0.0775
vn 0.0556 0.9582 0.2806
vn -0.0052 -0.9994 -0.0330
vn 0.0108 0.9976 0.0685
vn 0.4889 0.8721 -0.0209
vn 0.5103 -0.8527 -0.1116
vn 0.0556 -0.9582 0.2806
vn -0.6134 0.7172 0.3307
vn 0.6790 -0.6942 0.2389
vn 0.0000 -0.9485 -0.3167
vn -0.6786 -0.7262 -0.1103
usemtl Wing
s off
f 13/1/1 2/2/1 4/3/1 14/4/1
f 14/4/2 4/3/2 8/5/2 15/6/2
f 15/6/3 8/5/3 6/7/3 16/8/3
f 13/1/4 1/9/4 9/10/4 17/11/4
f 3/12/5 7/13/5 5/14/5 1/15/5
f 8/5/6 4/16/6 2/17/6 6/7/6
f 18/18/7 12/19/7 10/20/7 17/21/7
f 1/15/8 5/14/8 11/22/8 9/23/8
f 6/7/9 2/17/9 10/24/9 12/19/9
f 16/8/10 6/7/10 12/19/10 18/18/10
f 5/14/11 16/8/11 18/18/11 11/22/11
f 11/22/12 18/18/12 17/21/12 9/25/12
f 2/2/13 13/1/13 17/11/13 10/26/13
f 7/13/14 15/6/14 16/8/14 5/14/14
f 3/27/15 14/4/15 15/6/15 7/13/15
f 1/9/16 13/1/16 14/4/16 3/27/16
